<svg width="24" height="23" viewBox="0 0 24 21.9999" fill="none" xmlns="http://www.w3.org/2000/svg" xmlns:xlink="http://www.w3.org/1999/xlink">
	<desc>
			Created with Pixso.
	</desc>
	<defs/>
	<path id="Vector" d="M12 8.22C12.23 7.1 13.54 1.99 17.38 1.99C19.6 1.99 22 3.55 22 7C22 10.9 18.37 15.47 12 19.63C5.62 15.47 2 10.9 2 7C2 3.51 4.36 1.99 6.57 1.99C10.5 1.99 11.72 7.12 12 8.22ZM0 7C0 11.07 3.06 16.48 12 21.99C20.93 16.48 24 11.07 24 7C24 -0.96 14.35 -2.03 12 3.26C9.66 -2 0 -1.01 0 7Z" fill="#000000" fill-opacity="1.000000" fill-rule="nonzero"/>
</svg>
